<svg xmlns="http://www.w3.org/2000/svg" viewBox="0 0 283.4646 283.4646"><defs><style>.a{fill:#fff;}</style></defs><path class="a" d="M200.3385,71.6883q6.9126-4.91,17.665-4.915a39.9451,39.9451,0,0,1,10.752,1.2285,31.7136,31.7136,0,0,1,4.3149,1.5708,2.8355,2.8355,0,0,0,3.9943-2.1107L241.37,40.6177a2.8,2.8,0,0,0-1.2859-2.846A50.7068,50.7068,0,0,0,227.527,32.826a84.2022,84.2022,0,0,0-22.1192-2.6113,86.98,86.98,0,0,0-23.3486,3.0722,55.5454,55.5454,0,0,0-19.6611,9.8311,44.5821,44.5821,0,0,0-10.7434,12.2127A72.9,72.9,0,0,1,143.9,66.1335L136.77,74.2052a2.8314,2.8314,0,0,1-.2519.2513L46.2015,153.8717c-2.8342,2.48-4.2868,5.3143-3.8971,8.5029a11.4466,11.4466,0,0,0,11.3373,11.3727h8.4936a2.8312,2.8312,0,0,1,2.8311,2.8436l-.2355,53.8781a25.0135,25.0135,0,0,0,.1619,2.7309,2.5992,2.5992,0,0,1,.0152.2775v2.77A17.0028,17.0028,0,0,0,81.9108,253.25H193.6675a2.8312,2.8312,0,0,0,2.8312-2.8312v-110.77a2.8312,2.8312,0,0,1,2.8311-2.8312h37.9617a2.8312,2.8312,0,0,0,2.8312-2.8312v-31.51a2.8313,2.8313,0,0,0-2.8312-2.8313H196.2576a2.8312,2.8312,0,0,1-2.8312-2.8311V88.8924Q193.4264,76.6082,200.3385,71.6883Zm-29.69,100.7886a25.4141,25.4141,0,0,1-7.275,17.9633L135.756,218.1151a5.9058,5.9058,0,0,1-8.4671,0L99.67,190.44a25.439,25.439,0,0,1-7.2734-17.9633h0v-.9515c0-11.4669,7.7213-21.2475,18.2486-23.1307a21.0312,21.0312,0,0,1,19.0434,6.5487l1.834,1.9654,1.6964-1.9654A21.2851,21.2851,0,0,1,152.4,148.3947c10.53,1.8832,18.2486,11.6638,18.2486,23.1307Z"/></svg>