<svg xmlns="http://www.w3.org/2000/svg" viewBox="0 0 1233.6584 283.4646"><defs><style>.a{fill:#fff;}</style></defs><path class="a" d="M193.381,71.6883q6.9126-4.91,17.6651-4.915a39.9443,39.9443,0,0,1,10.7519,1.2285,31.7335,31.7335,0,0,1,4.315,1.5709,2.8355,2.8355,0,0,0,3.9942-2.1107l4.3054-26.8442a2.8,2.8,0,0,0-1.2858-2.8461A50.7062,50.7062,0,0,0,220.57,32.826,84.2014,84.2014,0,0,0,198.45,30.2147a86.9763,86.9763,0,0,0-23.3487,3.0723,55.5461,55.5461,0,0,0-19.6611,9.831,44.5883,44.5883,0,0,0-10.7434,12.2127,72.8945,72.8945,0,0,1-7.7545,10.8028l-7.1306,8.0717a2.8048,2.8048,0,0,1-.2519.2513L39.2441,153.8717c-2.8343,2.48-4.2869,5.3144-3.8972,8.503a11.4467,11.4467,0,0,0,11.3373,11.3727h8.4937a2.8311,2.8311,0,0,1,2.8311,2.8435l-.2356,53.8781a25.0119,25.0119,0,0,0,.162,2.7309,2.6274,2.6274,0,0,1,.0152.2776v2.77A17.0028,17.0028,0,0,0,74.9533,253.25H186.71a2.8312,2.8312,0,0,0,2.8312-2.8312v-110.77a2.8313,2.8313,0,0,1,2.8312-2.8313H230.334a2.8312,2.8312,0,0,0,2.8312-2.8311v-31.51a2.8312,2.8312,0,0,0-2.8312-2.8312H189.3a2.8312,2.8312,0,0,1-2.8312-2.8312V88.8924Q186.4689,76.6083,193.381,71.6883Zm-29.69,100.7886A25.414,25.414,0,0,1,156.416,190.44l-27.6174,27.675a5.906,5.906,0,0,1-8.4671,0L92.7125,190.44a25.4386,25.4386,0,0,1-7.2734-17.9633h0v-.9515c0-11.4669,7.7212-21.2475,18.2486-23.1307a21.0309,21.0309,0,0,1,19.0433,6.5488l1.834,1.9653,1.6965-1.9653a21.2849,21.2849,0,0,1,19.1809-6.5488c10.53,1.8832,18.2485,11.6638,18.2485,23.1307Z"/><path class="a" d="M304.576,61.01V207.3506q0,8.9091,2.97,12.6894,2.9678,3.7853,9.99,3.78a35.0733,35.0733,0,0,0,6.75-.54q2.6954-.5376,6.4795-1.62l-2.97,27.54a44.3937,44.3937,0,0,1-12.6894,4.86,65.65,65.65,0,0,1-15.3907,1.89q-21.6034,0-31.3193-9.99-9.7208-9.986-9.7207-32.67V61.01Z"/><path class="a" d="M370.4549,102.59q-14.042,0-20.3848-5.2646Q343.723,92.06,343.7254,80.72q0-11.606,6.3447-16.875,6.34-5.2653,20.3848-5.2651,13.77,0,20.25,5.2651t6.4805,16.875q0,11.3394-6.4805,16.605T370.4549,102.59Zm22.95,15.66v135h-45.9v-135Z"/><path class="a" d="M426.07,253.25v-135h41.04l2.4306,46.44-5.1308-5.13q2.6967-14.5811,9.5849-24.3007a44.6064,44.6064,0,0,1,17.28-14.7149,53.253,53.253,0,0,1,23.3555-4.9951q14.0346,0,24.4345,5.4A39.252,39.252,0,0,1,555.4,136.88q5.9355,10.5307,5.94,26.46v89.91h-45.9V175.49q0-14.0361-5.3994-19.44a18.6665,18.6665,0,0,0-13.77-5.3994,24.946,24.946,0,0,0-12.15,3.1045,21.2986,21.2986,0,0,0-8.9092,9.8555q-3.24,6.7514-3.24,18.09v71.55Z"/><path class="a" d="M643.15,255.95q-16.7446,0-29.2949-8.2354-12.5552-8.2323-19.44-23.8945-6.8848-15.6562-6.8848-37.53,0-22.68,7.1543-38.34,7.1514-15.6562,19.9805-24.03,12.82-8.3657,29.5654-8.37,18.3574,0,29.5644,11.2051,11.2,11.2075,14.4453,28.4853l-4.32,5.67V61.01h45.9V253.25H688.78l-2.9707-45.8994,5.4,4.05a53.3962,53.3962,0,0,1-8.2354,23.49,46.7758,46.7758,0,0,1-16.7392,15.5244A47.366,47.366,0,0,1,643.15,255.95Zm15.93-33.75a21.5128,21.5128,0,0,0,13.3652-4.1846q5.53-4.1835,8.5049-12.5556,2.9677-8.3658,2.97-20.52a57.8772,57.8772,0,0,0-2.8349-19.3056,25.439,25.439,0,0,0-8.37-12.1494A21.5317,21.5317,0,0,0,659.3494,149.3q-11.8842,0-18.7646,8.7754Q633.7,166.8526,633.7,185.75q0,18.9024,6.75,27.6748Q647.1956,222.2022,659.08,222.2Z"/><path class="a" d="M828.369,255.95q-22.1427,0-38.4747-8.37a59.0184,59.0184,0,0,1-25.11-23.8946q-8.7774-15.5229-8.7754-37.9355,0-22.4078,8.7754-37.9346a59.4425,59.4425,0,0,1,24.84-23.8955q16.0607-8.3657,36.8555-8.37,21.3252,0,36.18,8.2354a57.098,57.098,0,0,1,22.8144,22.68q7.9616,14.4478,7.9659,33.0752,0,5.1329-.27,9.8555a76.8171,76.8171,0,0,1-.81,7.9649h-106.92v-24.84h86.9394l-22.14,8.64q0-16.2-5.8057-24.84-5.8082-8.6382-17.9541-8.64a25.9159,25.9159,0,0,0-14.7158,4.05q-6.0747,4.05-9.18,12.5547-3.1069,8.5048-3.1045,22.0048,0,13.5045,3.51,21.6006,3.5054,8.0991,9.99,11.88a30.5425,30.5425,0,0,0,15.6592,3.7793q10.2583,0,16.3349-4.05a24.2161,24.2161,0,0,0,9.0459-11.34l36.72,12.42a42.8326,42.8326,0,0,1-13.0948,19.3047A62.7958,62.7958,0,0,1,855.6385,251.9,89.2088,89.2088,0,0,1,828.369,255.95Z"/><path class="a" d="M919.0877,253.25v-135h40.5l1.8906,29.16q5.1255-15.1181,15.2549-23.49,10.125-8.3657,25.7852-8.37a41.035,41.035,0,0,1,8.7744.81,18.7574,18.7574,0,0,1,5.8056,2.16l-4.5908,37.8a33.353,33.353,0,0,0-6.8847-1.7549,65.1922,65.1922,0,0,0-10.125-.6748,33.3793,33.3793,0,0,0-15.12,3.51,27.0648,27.0648,0,0,0-11.205,10.3945q-4.19,6.8849-4.1846,17.4151v68.04Z"/></svg>