<svg width="708" height="707" xmlns="http://www.w3.org/2000/svg" xmlns:xlink="http://www.w3.org/1999/xlink" overflow="hidden"><defs><clipPath id="clip0"><rect x="337" y="-203" width="708" height="707"/></clipPath></defs><g clip-path="url(#clip0)" transform="translate(-337 203)"><path d="M352.015 105.736C376.254 105.736 388.563 100.434 400.468 95.3051 401.651 94.7954 402.828 94.2917 404.009 93.7924 402.284 93.4507 400.557 93.1148 398.82 92.807 386.831 97.9696 375.335 102.789 352.017 102.789 328.783 102.789 317.282 98.0035 305.342 92.8615 303.609 93.1708 301.889 93.5096 300.169 93.8513 301.303 94.3315 302.432 94.8161 303.567 95.3051 315.469 100.434 327.777 105.736 352.015 105.736Z" fill="#6DBB7C" transform="matrix(1.00141 0 0 1 337 -203)"/><path d="M352.015 124.579C376.254 124.579 388.563 119.277 400.468 114.148 411.48 109.405 421.971 104.913 441.382 104.101 439 103.251 436.602 102.437 434.188 101.653 418.473 103.206 408.749 107.374 399.303 111.444 387.137 116.684 375.647 121.633 352.017 121.633 328.387 121.633 316.895 116.684 304.73 111.444 295.354 107.405 285.7 103.269 270.19 101.69 267.798 102.468 265.421 103.276 263.06 104.119 282.211 104.976 292.63 109.439 303.565 114.15 315.469 119.277 327.777 124.579 352.015 124.579Z" fill="#6DBB7C" transform="matrix(1.00141 0 0 1 337 -203)"/><path d="M256.279 122.803C279.909 122.803 291.4 127.752 303.565 132.993 315.469 138.12 327.777 143.424 352.017 143.424 376.257 143.424 388.564 138.121 400.47 132.993 412.636 127.752 424.128 122.803 447.758 122.803 471.391 122.803 482.883 127.753 495.047 132.993 498.191 134.346 501.369 135.71 504.779 136.987 500.543 134.002 496.211 131.143 491.797 128.404 481.112 123.94 469.027 119.856 447.756 119.856 423.517 119.856 411.207 125.158 399.303 130.287 387.137 135.527 375.647 140.476 352.017 140.476 328.387 140.476 316.895 135.527 304.73 130.287 292.826 125.16 280.518 119.856 256.279 119.856 235.87 119.856 223.925 123.617 213.551 127.867 209.022 130.652 204.585 133.571 200.242 136.616 203.285 135.446 206.154 134.215 208.994 132.991 221.158 127.752 232.649 122.803 256.279 122.803Z" fill="#6DBB7C" transform="matrix(1.00141 0 0 1 337 -203)"/><path d="M256.279 141.646C279.909 141.646 291.4 146.595 303.565 151.836 315.469 156.963 327.777 162.267 352.017 162.267 376.257 162.267 388.564 156.964 400.47 151.836 412.636 146.595 424.128 141.646 447.758 141.646 471.391 141.646 482.883 146.596 495.047 151.836 505.523 156.347 516.321 160.991 535.276 162.043 534.15 160.969 533.007 159.916 531.864 158.863 515.726 157.525 506.19 153.429 496.212 149.131 484.308 144.004 471.998 138.7 447.758 138.7 423.518 138.7 411.209 144.003 399.305 149.131 387.139 154.372 375.648 159.321 352.018 159.321 328.388 159.321 316.897 154.372 304.732 149.131 292.828 144.004 280.52 138.7 256.28 138.7 232.043 138.7 219.733 144.003 207.83 149.131 197.951 153.388 188.516 157.452 172.663 158.828 171.515 159.885 170.368 160.941 169.24 162.019 187.906 160.919 198.608 156.312 208.997 151.837 221.158 146.595 232.649 141.646 256.279 141.646Z" fill="#6DBB7C" transform="matrix(1.00141 0 0 1 337 -203)"/><path d="M208.995 170.68C221.16 165.439 232.65 160.49 256.28 160.49 279.91 160.49 291.402 165.439 303.567 170.68 315.471 175.807 327.778 181.111 352.018 181.111 376.258 181.111 388.566 175.809 400.471 170.68 412.638 165.439 424.129 160.49 447.759 160.49 471.392 160.49 482.884 165.441 495.049 170.68 506.953 175.807 519.262 181.111 543.502 181.111 546.938 181.111 550.109 180.995 553.099 180.798 552.286 179.853 551.456 178.924 550.629 177.992 548.373 178.098 546.021 178.165 543.503 178.165 519.872 178.165 508.38 173.216 496.215 167.976 484.311 162.849 472.001 157.545 447.761 157.545 423.521 157.545 411.212 162.847 399.308 167.976 387.141 173.216 375.651 178.165 352.021 178.165 328.391 178.165 316.9 173.216 304.735 167.976 292.831 162.849 280.523 157.545 256.283 157.545 232.046 157.545 219.736 162.847 207.833 167.976 195.668 173.216 184.178 178.165 160.548 178.165 158.187 178.165 155.979 178.104 153.848 178.009 153.017 178.946 152.185 179.88 151.367 180.827 154.235 181.007 157.274 181.111 160.548 181.111 184.782 181.11 197.092 175.807 208.995 170.68Z" fill="#6DBB7C" transform="matrix(1.00141 0 0 1 337 -203)"/><path d="M208.995 189.523C221.16 184.283 232.65 179.333 256.28 179.333 279.91 179.333 291.402 184.283 303.567 189.523 315.471 194.65 327.778 199.954 352.018 199.954 376.258 199.954 388.566 194.652 400.471 189.523 412.638 184.283 424.129 179.333 447.759 179.333 471.392 179.333 482.884 184.284 495.049 189.523 506.953 194.65 519.262 199.954 543.502 199.954 552.755 199.954 560.261 199.178 566.678 197.938 566.04 197.063 565.413 196.182 564.765 195.315 558.833 196.368 551.952 197.008 543.5 197.008 519.869 197.008 508.377 192.059 496.212 186.819 484.308 181.692 471.998 176.388 447.758 176.388 423.518 176.388 411.209 181.69 399.305 186.819 387.139 192.059 375.648 197.008 352.018 197.008 328.388 197.008 316.897 192.059 304.732 186.819 292.828 181.692 280.52 176.388 256.28 176.388 232.043 176.388 219.733 181.69 207.83 186.819 195.665 192.059 184.175 197.008 160.545 197.008 152.277 197.008 145.518 196.393 139.675 195.381 139.026 196.251 138.394 197.137 137.755 198.014 144.085 199.212 151.481 199.954 160.546 199.954 184.782 199.953 197.092 194.65 208.995 189.523Z" fill="#6DBB7C" transform="matrix(1.00141 0 0 1 337 -203)"/><path d="M208.995 208.366C221.16 203.126 232.65 198.177 256.28 198.177 279.91 198.177 291.402 203.126 303.567 208.366 315.471 213.493 327.778 218.797 352.018 218.797 376.258 218.797 388.566 213.495 400.471 208.366 412.638 203.126 424.129 198.177 447.759 198.177 471.392 198.177 482.884 203.127 495.049 208.366 506.953 213.493 519.262 218.797 543.502 218.797 558.493 218.797 568.917 216.766 577.509 214.006 576.975 213.149 576.448 212.289 575.906 211.437 567.655 214.031 557.808 215.852 543.502 215.852 519.87 215.852 508.379 210.903 496.214 205.662 484.31 200.535 471.999 195.231 447.759 195.231 423.52 195.231 411.21 200.533 399.306 205.662 387.14 210.903 375.65 215.852 352.02 215.852 328.39 215.852 316.898 210.903 304.733 205.662 292.829 200.535 280.521 195.231 256.282 195.231 232.045 195.231 219.734 200.533 207.831 205.662 195.667 210.903 184.176 215.852 160.546 215.852 146.452 215.852 136.69 214.084 128.513 211.551 127.971 212.402 127.443 213.262 126.909 214.119 135.432 216.821 145.764 218.797 160.545 218.797 184.782 218.797 197.092 213.495 208.995 208.366Z" fill="#6DBB7C" transform="matrix(1.00141 0 0 1 337 -203)"/><path d="M208.995 227.211C221.16 221.97 232.65 217.021 256.28 217.021 279.91 217.021 291.402 221.97 303.567 227.211 315.471 232.338 327.778 237.642 352.018 237.642 376.258 237.642 388.566 232.339 400.471 227.211 412.638 221.97 424.129 217.021 447.759 217.021 471.392 217.021 482.884 221.971 495.049 227.211 506.953 232.338 519.262 237.642 543.502 237.642 564.061 237.642 576.031 233.826 586.458 229.539 585.995 228.669 585.537 227.795 585.065 226.929 574.72 231.174 563.429 234.696 543.502 234.696 519.87 234.696 508.379 229.747 496.214 224.506 484.31 219.379 471.999 214.075 447.759 214.075 423.52 214.075 411.21 219.378 399.306 224.506 387.14 229.747 375.65 234.696 352.02 234.696 328.39 234.696 316.898 229.747 304.733 224.506 292.829 219.379 280.521 214.075 256.282 214.075 232.045 214.075 219.734 219.378 207.831 224.506 195.667 229.747 184.176 234.696 160.546 234.696 140.851 234.696 129.592 231.255 119.345 227.075 118.873 227.94 118.417 228.815 117.954 229.687 128.295 233.912 140.226 237.642 160.546 237.642 184.782 237.64 197.092 232.338 208.995 227.211Z" fill="#6DBB7C" transform="matrix(1.00141 0 0 1 337 -203)"/><path d="M160.545 256.483C184.782 256.483 197.092 251.181 208.995 246.052 221.16 240.812 232.65 235.863 256.28 235.863 279.91 235.863 291.402 240.812 303.567 246.052 315.471 251.179 327.778 256.483 352.018 256.483 376.258 256.483 388.566 251.181 400.471 246.052 412.638 240.812 424.129 235.863 447.759 235.863 471.392 235.863 482.884 240.813 495.049 246.052 506.953 251.179 519.262 256.483 543.502 256.483 567.742 256.483 580.052 251.181 591.956 246.052 592.678 245.741 593.397 245.432 594.117 245.124 593.714 244.227 593.292 243.341 592.88 242.449 592.182 242.748 591.485 243.047 590.793 243.346 578.626 248.587 567.135 253.536 543.503 253.536 519.872 253.536 508.38 248.587 496.215 243.346 484.311 238.219 472.001 232.915 447.761 232.915 423.521 232.915 411.212 238.218 399.308 243.346 387.141 248.587 375.651 253.536 352.021 253.536 328.391 253.536 316.9 248.587 304.735 243.346 292.831 238.219 280.523 232.915 256.283 232.915 232.046 232.915 219.736 238.218 207.833 243.346 195.668 248.587 184.178 253.536 160.548 253.536 136.918 253.536 125.426 248.587 113.261 243.346 112.688 243.1 112.114 242.853 111.538 242.606 111.126 243.497 110.707 244.385 110.305 245.282 110.902 245.538 111.498 245.794 112.096 246.052 123.999 251.181 136.307 256.483 160.545 256.483Z" fill="#6DBB7C" transform="matrix(1.00141 0 0 1 337 -203)"/><path d="M160.545 275.328C184.782 275.328 197.092 270.025 208.995 264.897 221.16 259.656 232.65 254.707 256.28 254.707 279.91 254.707 291.402 259.656 303.567 264.897 315.471 270.024 327.778 275.328 352.018 275.328 376.258 275.328 388.566 270.025 400.471 264.897 412.638 259.656 424.129 254.707 447.759 254.707 471.392 254.707 482.884 259.658 495.049 264.897 506.953 270.024 519.262 275.328 543.502 275.328 567.742 275.328 580.052 270.025 591.956 264.897 594.862 263.645 597.733 262.412 600.736 261.257 600.395 260.338 600.044 259.423 599.692 258.509 596.593 259.694 593.678 260.948 590.793 262.191 578.626 267.432 567.135 272.381 543.503 272.381 519.872 272.381 508.38 267.432 496.215 262.191 484.311 257.064 472.001 251.76 447.761 251.76 423.521 251.76 411.212 257.062 399.308 262.191 387.141 267.432 375.651 272.381 352.021 272.381 328.391 272.381 316.9 267.432 304.735 262.191 292.831 257.064 280.523 251.76 256.283 251.76 232.046 251.76 219.736 257.062 207.833 262.191 195.668 267.432 184.178 272.381 160.548 272.381 136.918 272.381 125.426 267.432 113.261 262.191 110.494 260.999 107.698 259.8 104.742 258.657 104.39 259.572 104.039 260.487 103.698 261.406 106.563 262.518 109.314 263.698 112.096 264.897 123.999 270.025 136.307 275.328 160.545 275.328Z" fill="#6DBB7C" transform="matrix(1.00141 0 0 1 337 -203)"/><path d="M160.545 294.171C184.782 294.171 197.092 288.868 208.995 283.74 221.16 278.499 232.65 273.55 256.28 273.55 279.91 273.55 291.402 278.499 303.567 283.74 315.471 288.867 327.778 294.171 352.018 294.171 376.258 294.171 388.566 288.868 400.471 283.74 412.638 278.499 424.129 273.55 447.759 273.55 471.392 273.55 482.884 278.501 495.049 283.74 506.953 288.867 519.262 294.171 543.502 294.171 567.742 294.171 580.052 288.868 591.956 283.74 596.618 281.732 601.187 279.769 606.372 278.109 606.093 277.173 605.825 276.234 605.537 275.303 600.113 277.026 595.416 279.041 590.791 281.034 578.625 286.275 567.133 291.224 543.502 291.224 519.87 291.224 508.379 286.275 496.214 281.034 484.31 275.907 471.999 270.603 447.759 270.603 423.52 270.603 411.21 275.905 399.306 281.034 387.14 286.275 375.65 291.224 352.02 291.224 328.39 291.224 316.898 286.275 304.733 281.034 292.829 275.907 280.521 270.603 256.282 270.603 232.045 270.603 219.734 275.905 207.831 281.034 195.667 286.275 184.176 291.224 160.546 291.224 136.916 291.224 125.425 286.275 113.26 281.034 108.747 279.09 104.172 277.122 98.9152 275.427 98.6265 276.357 98.3584 277.297 98.08 278.234 103.103 279.867 107.552 281.784 112.095 283.74 123.999 288.868 136.307 294.171 160.545 294.171Z" fill="#6DBB7C" transform="matrix(1.00141 0 0 1 337 -203)"/><path d="M160.545 313.015C184.782 313.015 197.092 307.713 208.995 302.584 221.16 297.344 232.65 292.395 256.28 292.395 279.91 292.395 291.402 297.344 303.567 302.584 315.471 307.711 327.778 313.015 352.018 313.015 376.258 313.015 388.566 307.713 400.471 302.584 412.638 297.344 424.129 292.395 447.759 292.395 471.392 292.395 482.884 297.345 495.049 302.584 506.953 307.711 519.262 313.015 543.502 313.015 567.742 313.015 580.052 307.713 591.956 302.584 597.938 300.008 603.762 297.506 610.939 295.623 610.726 294.67 610.511 293.719 610.287 292.77 602.743 294.734 596.715 297.327 590.793 299.878 578.626 305.119 567.135 310.068 543.503 310.068 519.872 310.068 508.38 305.119 496.215 299.878 484.311 294.751 472.001 289.447 447.761 289.447 423.521 289.447 411.212 294.75 399.308 299.878 387.141 305.119 375.651 310.068 352.021 310.068 328.391 310.068 316.9 305.119 304.735 299.878 292.831 294.751 280.523 289.447 256.283 289.447 232.046 289.447 219.736 294.75 207.833 299.878 195.668 305.119 184.178 310.068 160.548 310.068 136.918 310.068 125.426 305.119 113.261 299.878 107.448 297.375 101.527 294.832 94.1768 292.882 93.9529 293.831 93.7394 294.784 93.5273 295.737 100.513 297.606 106.233 300.058 112.096 302.584 123.999 307.713 136.307 313.015 160.545 313.015Z" fill="#6DBB7C" transform="matrix(1.00141 0 0 1 337 -203)"/><path d="M160.545 331.858C184.782 331.858 197.092 326.556 208.995 321.427 221.16 316.187 232.65 311.238 256.28 311.238 279.91 311.238 291.402 316.187 303.567 321.427 315.471 326.554 327.778 331.858 352.018 331.858 376.258 331.858 388.566 326.556 400.471 321.427 412.638 316.187 424.129 311.238 447.759 311.238 471.392 311.238 482.884 316.188 495.049 321.427 506.953 326.554 519.262 331.858 543.502 331.858 567.742 331.858 580.052 326.556 591.956 321.427 598.854 318.456 605.54 315.581 614.339 313.646 614.192 312.681 614.024 311.725 613.866 310.763 604.596 312.786 597.621 315.78 590.791 318.721 578.625 323.962 567.133 328.911 543.502 328.911 519.87 328.911 508.379 323.962 496.214 318.721 484.31 313.594 471.999 308.29 447.759 308.29 423.52 308.29 411.21 313.593 399.306 318.721 387.14 323.962 375.65 328.911 352.02 328.911 328.39 328.911 316.898 323.962 304.733 318.721 292.829 313.594 280.521 308.29 256.282 308.29 232.045 308.29 219.734 313.593 207.831 318.721 195.667 323.962 184.176 328.911 160.546 328.911 136.916 328.911 125.425 323.962 113.26 318.721 106.533 315.824 99.6737 312.871 90.6094 310.85 90.4518 311.814 90.2839 312.772 90.1381 313.739 98.7281 315.673 105.311 318.502 112.095 321.426 123.999 326.556 136.307 331.858 160.545 331.858Z" fill="#6DBB7C" transform="matrix(1.00141 0 0 1 337 -203)"/><path d="M160.545 350.701C184.782 350.701 197.092 345.399 208.995 340.27 221.16 335.03 232.65 330.081 256.28 330.081 279.91 330.081 291.402 335.03 303.567 340.27 315.471 345.397 327.778 350.701 352.018 350.701 376.258 350.701 388.566 345.399 400.471 340.27 412.638 335.03 424.129 330.081 447.759 330.081 471.392 330.081 482.884 335.031 495.049 340.27 506.953 345.397 519.262 350.701 543.502 350.701 567.742 350.701 580.052 345.399 591.956 340.27 599.399 337.064 606.602 333.974 616.473 332.051 616.394 331.072 616.304 330.097 616.212 329.12 605.743 331.128 598.187 334.379 590.791 337.563 578.625 342.804 567.133 347.753 543.502 347.753 519.87 347.753 508.379 342.804 496.214 337.563 484.31 332.436 471.999 327.132 447.759 327.132 423.52 327.132 411.21 332.434 399.306 337.563 387.14 342.804 375.65 347.753 352.02 347.753 328.39 347.753 316.898 342.804 304.733 337.563 292.829 332.436 280.521 327.132 256.282 327.132 232.045 327.132 219.734 332.434 207.831 337.563 195.667 342.804 184.176 347.753 160.546 347.753 136.916 347.753 125.425 342.804 113.26 337.563 105.969 334.423 98.5116 331.222 88.269 329.209 88.1791 330.184 88.0878 331.16 88.0082 332.138 97.6559 334.065 104.763 337.111 112.095 340.269 123.999 345.399 136.307 350.701 160.545 350.701Z" fill="#6DBB7C" transform="matrix(1.00141 0 0 1 337 -203)"/><path d="M590.791 356.409C578.625 361.65 567.133 366.599 543.502 366.599 519.87 366.599 508.379 361.65 496.214 356.409 484.31 351.282 471.999 345.978 447.759 345.978 423.52 345.978 411.21 351.28 399.306 356.409 387.14 361.65 375.65 366.599 352.02 366.599 328.39 366.599 316.898 361.65 304.733 356.409 292.829 351.282 280.521 345.978 256.282 345.978 232.045 345.978 219.734 351.28 207.831 356.409 195.667 361.65 184.176 366.599 160.546 366.599 136.916 366.599 125.425 361.65 113.26 356.409 105.716 353.16 97.9976 349.844 87.1952 347.848 87.1731 348.834 87.1687 349.822 87.1584 350.81 97.2508 352.725 104.546 355.863 112.095 359.115 123.999 364.242 136.307 369.546 160.546 369.546 184.783 369.546 197.094 364.243 208.997 359.115 221.161 353.874 232.652 348.925 256.282 348.925 279.912 348.925 291.403 353.874 303.568 359.115 315.472 364.242 327.78 369.546 352.02 369.546 376.26 369.546 388.567 364.243 400.473 359.115 412.639 353.874 424.131 348.925 447.761 348.925 471.394 348.925 482.885 353.876 495.05 359.115 506.954 364.242 519.263 369.546 543.503 369.546 567.743 369.546 580.054 364.243 591.958 359.115 599.616 355.815 607.013 352.635 617.332 350.729 617.321 349.744 617.317 348.757 617.295 347.773 606.263 349.76 598.434 353.117 590.791 356.409Z" fill="#6DBB7C" transform="matrix(1.00141 0 0 1 337 -203)"/><path d="M543.5 385.443C519.869 385.443 508.377 380.494 496.212 375.254 484.308 370.126 471.998 364.822 447.758 364.822 423.518 364.822 411.209 370.125 399.305 375.254 387.139 380.494 375.648 385.443 352.018 385.443 328.388 385.443 316.897 380.494 304.732 375.254 292.828 370.126 280.52 364.822 256.28 364.822 232.043 364.822 219.733 370.125 207.83 375.254 195.665 380.494 184.175 385.443 160.545 385.443 136.915 385.443 125.423 380.494 113.258 375.254 105.769 372.028 98.1139 368.734 87.4338 366.734 87.4824 367.74 87.5458 368.743 87.6047 369.746 97.4614 371.668 104.658 374.756 112.092 377.959 123.996 383.086 136.304 388.39 160.544 388.39 184.78 388.39 197.091 383.088 208.994 377.959 221.158 372.719 232.649 367.77 256.279 367.77 279.909 367.77 291.4 372.719 303.565 377.959 315.469 383.086 327.777 388.39 352.017 388.39 376.257 388.39 388.564 383.088 400.47 377.959 412.636 372.719 424.128 367.77 447.758 367.77 471.391 367.77 482.883 372.72 495.047 377.959 506.951 383.086 519.261 388.39 543.5 388.39 567.74 388.39 580.051 383.088 591.955 377.959 599.504 374.707 606.797 371.571 616.885 369.656 616.944 368.658 617.008 367.661 617.055 366.659 606.149 368.65 598.38 371.985 590.79 375.254 578.625 380.494 567.133 385.443 543.5 385.443Z" fill="#6DBB7C" transform="matrix(1.00141 0 0 1 337 -203)"/><path d="M543.5 404.286C519.869 404.286 508.377 399.337 496.212 394.097 484.308 388.969 471.998 383.665 447.758 383.665 423.518 383.665 411.209 388.968 399.305 394.097 387.139 399.337 375.648 404.286 352.018 404.286 328.388 404.286 316.897 399.337 304.732 394.097 292.828 388.969 280.52 383.665 256.28 383.665 232.043 383.665 219.733 388.968 207.83 394.097 195.665 399.337 184.175 404.286 160.545 404.286 136.915 404.286 125.423 399.337 113.258 394.097 106.156 391.037 98.8887 387.925 89.0525 385.904 89.1763 386.926 89.3015 387.946 89.437 388.963 98.3688 390.899 105.126 393.8 112.093 396.802 123.997 401.93 136.305 407.233 160.545 407.233 184.782 407.233 197.092 401.931 208.995 396.802 221.16 391.562 232.65 386.613 256.28 386.613 279.91 386.613 291.402 391.562 303.567 396.802 315.471 401.93 327.778 407.233 352.018 407.233 376.258 407.233 388.566 401.931 400.471 396.802 412.638 391.562 424.129 386.613 447.759 386.613 471.392 386.613 482.884 391.563 495.049 396.802 506.953 401.93 519.262 407.233 543.502 407.233 567.742 407.233 580.052 401.931 591.956 396.802 599.04 393.752 605.911 390.806 615.064 388.872 615.198 387.854 615.323 386.834 615.445 385.811 605.378 387.828 598 390.99 590.79 394.097 578.625 399.337 567.133 404.286 543.5 404.286Z" fill="#6DBB7C" transform="matrix(1.00141 0 0 1 337 -203)"/><path d="M543.5 423.129C519.869 423.129 508.377 418.18 496.212 412.94 484.308 407.812 471.998 402.508 447.758 402.508 423.518 402.508 411.209 407.811 399.305 412.94 387.139 418.18 375.648 423.129 352.018 423.129 328.388 423.129 316.897 418.18 304.732 412.94 292.828 407.812 280.52 402.508 256.28 402.508 232.043 402.508 219.733 407.811 207.83 412.94 195.665 418.18 184.175 423.129 160.545 423.129 136.915 423.129 125.423 418.18 113.258 412.94 106.922 410.21 100.453 407.44 92.1501 405.437 92.3578 406.491 92.5684 407.544 92.7893 408.594 100.117 410.486 106.022 413.028 112.092 415.644 123.996 420.771 136.304 426.075 160.544 426.075 184.78 426.075 197.091 420.773 208.994 415.644 221.158 410.403 232.649 405.454 256.279 405.454 279.909 405.454 291.4 410.403 303.565 415.644 315.469 420.771 327.777 426.075 352.017 426.075 376.257 426.075 388.564 420.773 400.47 415.644 412.636 410.403 424.128 405.454 447.758 405.454 471.391 405.454 482.883 410.405 495.047 415.644 506.951 420.771 519.261 426.075 543.5 426.075 567.74 426.075 580.051 420.773 591.955 415.644 598.151 412.975 604.182 410.386 611.72 408.483 611.939 407.432 612.15 406.379 612.356 405.326 603.83 407.337 597.241 410.16 590.79 412.94 578.625 418.18 567.133 423.129 543.5 423.129Z" fill="#6DBB7C" transform="matrix(1.00141 0 0 1 337 -203)"/><path d="M543.5 441.974C519.869 441.974 508.377 437.025 496.212 431.784 484.308 426.657 471.998 421.353 447.758 421.353 423.518 421.353 411.209 426.655 399.305 431.784 387.139 437.025 375.648 441.974 352.018 441.974 328.388 441.974 316.897 437.025 304.732 431.784 292.828 426.657 280.52 421.353 256.28 421.353 232.043 421.353 219.733 426.655 207.83 431.784 195.665 437.025 184.175 441.974 160.545 441.974 136.915 441.974 125.423 437.025 113.258 431.784 108.192 429.601 103.042 427.392 96.9415 425.568 97.2567 426.694 97.5896 427.813 97.9195 428.933 103.007 430.576 107.502 432.512 112.093 434.49 123.997 439.617 136.305 444.921 160.545 444.921 184.782 444.921 197.092 439.618 208.995 434.49 221.16 429.249 232.65 424.3 256.28 424.3 279.91 424.3 291.402 429.249 303.567 434.49 315.471 439.617 327.778 444.921 352.018 444.921 376.258 444.921 388.566 439.618 400.471 434.49 412.638 429.249 424.129 424.3 447.759 424.3 471.392 424.3 482.884 429.251 495.049 434.49 506.953 439.617 519.262 444.921 543.502 444.921 567.742 444.921 580.052 439.618 591.956 434.49 596.689 432.451 601.329 430.46 606.612 428.784 606.942 427.664 607.27 426.546 607.586 425.421 601.27 427.271 595.991 429.544 590.791 431.784 578.625 437.025 567.133 441.974 543.5 441.974Z" fill="#6DBB7C" transform="matrix(1.00141 0 0 1 337 -203)"/><path d="M543.5 460.817C519.869 460.817 508.377 455.868 496.212 450.627 484.308 445.5 471.998 440.196 447.758 440.196 423.518 440.196 411.209 445.498 399.305 450.627 387.139 455.868 375.648 460.817 352.018 460.817 328.388 460.817 316.897 455.868 304.732 450.627 292.828 445.5 280.52 440.196 256.28 440.196 232.043 440.196 219.733 445.498 207.83 450.627 195.665 455.868 184.175 460.817 160.545 460.817 136.915 460.817 125.423 455.868 113.258 450.627 110.22 449.319 107.153 447.999 103.87 446.759 104.333 447.996 104.797 449.234 105.278 450.464 107.582 451.39 109.825 452.356 112.093 453.333 123.997 458.46 136.305 463.764 160.545 463.764 184.782 463.764 197.092 458.462 208.995 453.333 221.16 448.092 232.65 443.143 256.28 443.143 279.91 443.143 291.402 448.092 303.567 453.333 315.471 458.46 327.778 463.764 352.018 463.764 376.258 463.764 388.566 458.462 400.471 453.333 412.638 448.092 424.129 443.143 447.759 443.143 471.392 443.143 482.884 448.094 495.049 453.333 506.953 458.46 519.262 463.764 543.502 463.764 567.742 463.764 580.052 458.462 591.956 453.333 594.391 452.284 596.802 451.25 599.286 450.262 599.764 449.038 600.228 447.806 600.688 446.574 597.215 447.868 593.983 449.253 590.791 450.629 578.625 455.868 567.133 460.817 543.5 460.817Z" fill="#6DBB7C" transform="matrix(1.00141 0 0 1 337 -203)"/><path d="M543.5 479.66C519.869 479.66 508.377 474.711 496.212 469.47 484.308 464.343 471.998 459.039 447.758 459.039 423.518 459.039 411.209 464.341 399.305 469.47 387.139 474.711 375.648 479.66 352.018 479.66 328.388 479.66 316.897 474.711 304.732 469.47 292.828 464.343 280.52 459.039 256.28 459.039 232.043 459.039 219.733 464.341 207.83 469.47 195.665 474.711 184.175 479.66 160.545 479.66 137.195 479.66 125.697 474.826 113.691 469.656 114.353 471.017 115.026 472.372 115.711 473.721 126.596 478.315 138.741 482.607 160.545 482.607 184.782 482.607 197.092 477.305 208.995 472.176 221.16 466.935 232.65 461.986 256.28 461.986 279.91 461.986 291.402 466.935 303.567 472.176 315.471 477.303 327.778 482.607 352.018 482.607 376.258 482.607 388.566 477.305 400.471 472.176 412.638 466.935 424.129 461.986 447.759 461.986 471.392 461.986 482.884 466.937 495.049 472.176 506.953 477.303 519.262 482.607 543.502 482.607 565.677 482.607 577.865 478.169 588.894 473.487 589.578 472.136 590.255 470.781 590.917 469.417 590.875 469.435 590.834 469.452 590.793 469.47 578.625 474.711 567.133 479.66 543.5 479.66Z" fill="#6DBB7C" transform="matrix(1.00141 0 0 1 337 -203)"/><path d="M496.212 488.313C484.308 483.186 471.998 477.882 447.758 477.882 423.518 477.882 411.209 483.184 399.305 488.313 387.139 493.554 375.648 498.503 352.018 498.503 328.388 498.503 316.897 493.554 304.732 488.313 292.828 483.186 280.52 477.882 256.28 477.882 232.043 477.882 219.733 483.184 207.83 488.313 195.665 493.554 184.175 498.503 160.545 498.503 145.576 498.503 135.483 496.514 126.999 493.726 127.79 494.997 128.584 496.267 129.396 497.523 137.441 499.831 147.172 501.45 160.545 501.45 184.782 501.45 197.092 496.148 208.995 491.019 221.16 485.778 232.65 480.829 256.28 480.829 279.91 480.829 291.402 485.778 303.567 491.019 315.471 496.146 327.778 501.45 352.018 501.45 376.258 501.45 388.566 496.148 400.471 491.019 412.638 485.778 424.129 480.829 447.759 480.829 471.392 480.829 482.884 485.78 495.049 491.019 506.953 496.146 519.262 501.45 543.502 501.45 557.169 501.45 567.044 499.764 575.193 497.373 576.012 496.103 576.81 494.82 577.609 493.538 569.008 496.423 558.805 498.504 543.503 498.504 519.869 498.504 508.377 493.554 496.212 488.313Z" fill="#6DBB7C" transform="matrix(1.00141 0 0 1 337 -203)"/><path d="M496.212 507.158C484.308 502.03 471.998 496.726 447.758 496.726 423.518 496.726 411.209 502.029 399.305 507.158 387.139 512.398 375.648 517.347 352.018 517.347 328.388 517.347 316.897 512.398 304.732 507.158 292.828 502.03 280.52 496.726 256.28 496.726 232.043 496.726 219.733 502.029 207.83 507.158 195.665 512.398 184.175 517.347 160.545 517.347 153.636 517.347 147.785 516.914 142.631 516.185 143.486 517.287 144.352 518.38 145.224 519.468 149.772 519.988 154.817 520.293 160.545 520.293 184.782 520.293 197.092 514.991 208.995 509.862 221.16 504.621 232.65 499.672 256.28 499.672 279.91 499.672 291.402 504.621 303.567 509.862 315.471 514.989 327.778 520.293 352.018 520.293 376.258 520.293 388.566 514.991 400.471 509.862 412.638 504.621 424.129 499.672 447.759 499.672 471.392 499.672 482.884 504.623 495.049 509.862 506.953 514.989 519.262 520.293 543.502 520.293 549.43 520.293 554.637 519.972 559.306 519.418 560.181 518.325 561.05 517.227 561.909 516.119 556.639 516.892 550.629 517.347 543.502 517.347 519.869 517.347 508.377 512.398 496.212 507.158Z" fill="#6DBB7C" transform="matrix(1.00141 0 0 1 337 -203)"/><path d="M496.212 526.001C484.308 520.873 471.998 515.569 447.758 515.569 423.518 515.569 411.209 520.872 399.305 526.001 387.139 531.241 375.648 536.19 352.018 536.19 328.388 536.19 316.897 531.241 304.732 526.001 292.828 520.873 280.52 515.569 256.28 515.569 232.043 515.569 219.733 520.872 207.83 526.001 195.665 531.241 184.175 536.19 160.545 536.19 160.281 536.19 160.038 536.181 159.778 536.18 160.711 537.165 161.66 538.136 162.609 539.108 185.468 538.812 197.439 533.683 208.994 528.706 221.158 523.466 232.649 518.517 256.279 518.517 279.909 518.517 291.4 523.466 303.565 528.706 315.469 533.834 327.777 539.138 352.017 539.138 376.257 539.138 388.564 533.835 400.47 528.706 412.636 523.466 424.128 518.517 447.758 518.517 471.391 518.517 482.883 523.467 495.047 528.706 506.677 533.716 518.724 538.878 541.873 539.114 542.826 538.139 543.777 537.164 544.716 536.174 544.305 536.177 543.919 536.19 543.5 536.19 519.869 536.19 508.377 531.241 496.212 526.001Z" fill="#6DBB7C" transform="matrix(1.00141 0 0 1 337 -203)"/><path d="M447.756 534.414C423.517 534.414 411.207 539.716 399.303 544.845 387.137 550.086 375.647 555.035 352.017 555.035 328.387 555.035 316.895 550.086 304.73 544.845 292.826 539.718 280.518 534.414 256.279 534.414 232.042 534.414 219.731 539.716 207.829 544.845 199.175 548.573 190.841 552.143 178.258 553.901 179.23 554.748 180.217 555.577 181.203 556.41 192.918 554.46 201.056 550.971 208.994 547.552 221.158 542.312 232.649 537.363 256.279 537.363 279.909 537.363 291.4 542.312 303.565 547.552 315.469 552.68 327.777 557.984 352.017 557.984 376.257 557.984 388.564 552.681 400.47 547.552 412.636 542.312 424.128 537.363 447.758 537.363 471.391 537.363 482.883 542.313 495.047 547.552 503.069 551.008 511.292 554.537 523.209 556.474 524.199 555.637 525.192 554.804 526.17 553.954 513.372 552.217 504.954 548.613 496.212 544.847 484.308 539.716 471.996 534.414 447.756 534.414Z" fill="#6DBB7C" transform="matrix(1.00141 0 0 1 337 -203)"/><path d="M447.756 553.257C423.517 553.257 411.207 558.56 399.303 563.688 387.137 568.929 375.647 573.878 352.017 573.878 328.387 573.878 316.895 568.929 304.73 563.688 292.826 558.561 280.518 553.257 256.279 553.257 232.042 553.257 219.731 558.56 207.829 563.688 204.073 565.305 200.38 566.895 196.377 568.32 197.33 569.014 198.281 569.712 199.244 570.394 202.663 569.116 205.846 567.749 208.994 566.394 221.158 561.153 232.649 556.204 256.279 556.204 279.909 556.204 291.4 561.153 303.565 566.394 315.469 571.521 327.777 576.825 352.017 576.825 376.257 576.825 388.564 571.523 400.47 566.394 412.636 561.153 424.128 556.204 447.758 556.204 471.391 556.204 482.883 561.155 495.047 566.394 498.283 567.789 501.561 569.191 505.088 570.502 506.054 569.818 507.009 569.122 507.965 568.427 503.845 566.974 500.061 565.347 496.212 563.688 484.308 558.56 471.996 553.257 447.756 553.257Z" fill="#6DBB7C" transform="matrix(1.00141 0 0 1 337 -203)"/><path d="M399.303 582.531C387.137 587.772 375.647 592.721 352.017 592.721 328.387 592.721 316.895 587.772 304.73 582.531 292.826 577.404 280.518 572.1 256.279 572.1 236.047 572.1 224.131 575.797 213.82 580.001 214.869 580.644 215.928 581.275 216.987 581.904 226.747 578.077 237.797 575.044 256.279 575.044 279.909 575.044 291.4 579.993 303.565 585.234 315.469 590.361 327.777 595.665 352.017 595.665 376.257 595.665 388.564 590.363 400.47 585.234 412.636 579.993 424.128 575.044 447.758 575.044 466.412 575.044 477.496 578.132 487.323 582.008 488.382 581.379 489.441 580.752 490.49 580.11 480.116 575.86 468.17 572.099 447.756 572.099 423.517 572.102 411.207 577.404 399.303 582.531Z" fill="#6DBB7C" transform="matrix(1.00141 0 0 1 337 -203)"/><path d="M399.303 601.374C387.137 606.615 375.647 611.564 352.017 611.564 328.387 611.564 316.895 606.615 304.73 601.374 292.826 596.247 280.518 590.943 256.279 590.943 248.564 590.943 242.066 591.484 236.396 592.382 238.007 593.166 239.63 593.929 241.259 594.68 245.694 594.178 250.632 593.889 256.277 593.889 279.907 593.889 291.399 598.838 303.564 604.078 315.468 609.206 327.776 614.51 352.015 614.51 376.255 614.51 388.563 609.207 400.468 604.078 412.635 598.838 424.126 593.889 447.756 593.889 453.557 593.889 458.619 594.191 463.145 594.718 464.763 593.973 466.374 593.217 467.975 592.44 462.225 591.509 455.626 590.943 447.756 590.943 423.517 590.945 411.207 596.247 399.303 601.374Z" fill="#6DBB7C" transform="matrix(1.00141 0 0 1 337 -203)"/></g></svg>