<svg xmlns="http://www.w3.org/2000/svg" viewBox="0 0 39.1092 40.9081"><defs><style>.a{fill:#fff;}</style></defs><path class="a" d="M161.2869,139.2266v5.012a1.913,1.913,0,0,1-1.913,1.913H124.0906a1.9129,1.9129,0,0,1-1.9129-1.913v-5.012a1.9129,1.9129,0,0,1,1.9129-1.913h35.2833A1.913,1.913,0,0,1,161.2869,139.2266Zm-14.7044-16.0354v37.0822a1.9129,1.9129,0,0,1-1.913,1.9129h-5.7962a1.9129,1.9129,0,0,1-1.9129-1.9129V123.1912a1.9129,1.9129,0,0,1,1.9129-1.913H144.67A1.913,1.913,0,0,1,146.5825,123.1912Z" transform="translate(-122.1777 -121.2782)"/></svg>